<?xml version="1.0" encoding="UTF-8" standalone="no"?>
<svg
   xmlns:dc="http://purl.org/dc/elements/1.1/"
   xmlns:cc="http://creativecommons.org/ns#"
   xmlns:rdf="http://www.w3.org/1999/02/22-rdf-syntax-ns#"
   xmlns:svg="http://www.w3.org/2000/svg"
   xmlns="http://www.w3.org/2000/svg"
   xmlns:sodipodi="http://sodipodi.sourceforge.net/DTD/sodipodi-0.dtd"
   xmlns:inkscape="http://www.inkscape.org/namespaces/inkscape"
   id="svg8"
   version="1.1"
   viewBox="0 0 23.812501 100.54167"
   height="380"
   width="90"
   sodipodi:docname="Module01.svg"
   inkscape:version="0.92.2 (5c3e80d, 2017-08-06)">
  <sodipodi:namedview
     pagecolor="#ffffff"
     bordercolor="#666666"
     borderopacity="1"
     objecttolerance="10"
     gridtolerance="10"
     guidetolerance="10"
     inkscape:pageopacity="0"
     inkscape:pageshadow="2"
     inkscape:window-width="1920"
     inkscape:window-height="1013"
     id="namedview37"
     showgrid="false"
     inkscape:zoom="2.1578947"
     inkscape:cx="45"
     inkscape:cy="190"
     inkscape:window-x="-9"
     inkscape:window-y="-9"
     inkscape:window-maximized="1"
     inkscape:current-layer="layer1" />
  <defs
     id="defs2" />
  <metadata
     id="metadata5">
    <rdf:RDF>
      <cc:Work
         rdf:about="">
        <dc:format>image/svg+xml</dc:format>
        <dc:type
           rdf:resource="http://purl.org/dc/dcmitype/StillImage" />
        <dc:title />
      </cc:Work>
    </rdf:RDF>
  </metadata>
  <g
     transform="translate(0,-196.45832)"
     id="layer1">
    <path
       id="rect817"
       d="M 0,196.45831 H 23.8125 V 296.99999 H 0 Z"
       style="opacity:1;vector-effect:none;fill:#f0f0f0;fill-opacity:1;fill-rule:evenodd;stroke:none;stroke-width:0.48607069;stroke-linecap:butt;stroke-linejoin:round;stroke-miterlimit:4;stroke-dasharray:none;stroke-dashoffset:0;stroke-opacity:1;paint-order:normal" />
    <g
       transform="translate(0,-2.1166665)"
       id="text946"
       style="font-style:normal;font-variant:normal;font-weight:normal;font-stretch:normal;font-size:2.82222223px;line-height:6.61458302px;font-family:DINPro;-inkscape-font-specification:DINPro;font-variant-ligatures:normal;font-variant-caps:normal;font-variant-numeric:normal;font-feature-settings:normal;text-align:center;letter-spacing:0px;word-spacing:0px;writing-mode:lr-tb;text-anchor:middle;fill:#000000;fill-opacity:1;stroke:none;stroke-width:0.26458332px;stroke-linecap:butt;stroke-linejoin:miter;stroke-opacity:1"
       aria-label="Pitch">
      <path
         id="path973"
         style="font-size:2.82222223px;text-align:center;text-anchor:middle;stroke-width:0.26458332px"
         d="m 10.343313,234.08358 c 0,-0.36124 -0.254,-0.58984 -0.6208893,-0.58984 H 8.9745348 v 2.00942 h 0.2144889 v -0.82691 h 0.5334 c 0.3668893,0 0.6208893,-0.23142 0.6208893,-0.59267 z m -0.214489,0 c 0,0.26529 -0.174978,0.40076 -0.4261558,0.40076 H 9.1890237 v -0.79869 h 0.5136445 c 0.2511778,0 0.4261558,0.13264 0.4261558,0.39793 z" />
      <path
         id="path975"
         style="font-size:2.82222223px;text-align:center;text-anchor:middle;stroke-width:0.26458332px"
         d="m 10.921471,235.50316 v -1.38853 h -0.2032 v 1.38853 z m 0.01411,-1.78365 v -0.2286 h -0.2286 v 0.2286 z" />
      <path
         id="path977"
         style="font-size:2.82222223px;text-align:center;text-anchor:middle;stroke-width:0.26458332px"
         d="m 11.968251,235.50316 v -0.17498 h -0.107244 c -0.129822,0 -0.189089,-0.0762 -0.189089,-0.2032 v -0.84667 h 0.296333 v -0.15522 h -0.296333 v -0.43462 h -0.2032 v 0.43462 H 11.29374 v 0.15522 h 0.174978 v 0.85232 c 0,0.20602 0.118533,0.37253 0.3556,0.37253 z" />
      <path
         id="path979"
         style="font-size:2.82222223px;text-align:center;text-anchor:middle;stroke-width:0.26458332px"
         d="m 13.346113,235.31407 -0.138289,-0.13264 c -0.104422,0.11571 -0.186267,0.15804 -0.318911,0.15804 -0.135467,0 -0.248356,-0.0536 -0.321733,-0.15804 -0.06491,-0.0903 -0.09031,-0.19756 -0.09031,-0.37254 0,-0.17498 0.0254,-0.28222 0.09031,-0.37253 0.07338,-0.10442 0.186266,-0.15805 0.321733,-0.15805 0.132644,0 0.214489,0.0395 0.318911,0.15523 l 0.138289,-0.12983 c -0.143933,-0.15522 -0.265289,-0.20602 -0.4572,-0.20602 -0.349956,0 -0.615244,0.23707 -0.615244,0.7112 0,0.47414 0.265288,0.7112 0.615244,0.7112 0.191911,0 0.313267,-0.0508 0.4572,-0.20602 z" />
      <path
         id="path981"
         style="font-size:2.82222223px;text-align:center;text-anchor:middle;stroke-width:0.26458332px"
         d="m 14.825619,235.50316 v -0.89182 c 0,-0.31327 -0.186267,-0.51365 -0.499534,-0.51365 -0.155222,0 -0.287866,0.0536 -0.389466,0.16934 v -0.77329 h -0.2032 v 2.00942 h 0.2032 v -0.85796 c 0,-0.23989 0.138289,-0.36689 0.347133,-0.36689 0.208844,0 0.338667,0.12418 0.338667,0.36689 v 0.85796 z" />
    </g>
    <g
       transform="translate(0,-6.0862931)"
       id="text950"
       style="font-style:normal;font-variant:normal;font-weight:normal;font-stretch:normal;font-size:2.82222223px;line-height:6.61458302px;font-family:DINPro;-inkscape-font-specification:DINPro;font-variant-ligatures:normal;font-variant-caps:normal;font-variant-numeric:normal;font-feature-settings:normal;text-align:center;letter-spacing:0px;word-spacing:0px;writing-mode:lr-tb;text-anchor:middle;fill:#000000;fill-opacity:1;stroke:none;stroke-width:0.26458332px;stroke-linecap:butt;stroke-linejoin:miter;stroke-opacity:1"
       aria-label="1V/oct">
      <path
         id="path984"
         style="font-size:2.82222223px;text-align:center;text-anchor:middle;stroke-width:0.26458332px"
         d="m 8.7942542,262.66519 v -2.00942 h -0.2032 l -0.3753555,0.32455 v 0.23143 l 0.3753555,-0.3302 v 1.78364 z" />
      <path
         id="path986"
         style="font-size:2.82222223px;text-align:center;text-anchor:middle;stroke-width:0.26458332px"
         d="m 10.853021,260.65577 h -0.225778 l -0.522111,1.6256 -0.5221108,-1.6256 H 9.3572434 l 0.6603996,2.00942 h 0.174978 z" />
      <path
         id="path988"
         style="font-size:2.82222223px;text-align:center;text-anchor:middle;stroke-width:0.26458332px"
         d="m 11.88278,260.44692 h -0.200378 l -0.804333,2.42712 h 0.200377 z" />
      <path
         id="path990"
         style="font-size:2.82222223px;text-align:center;text-anchor:middle;stroke-width:0.26458332px"
         d="m 13.196436,261.97092 c 0,-0.21448 -0.02822,-0.40922 -0.169334,-0.55315 -0.09596,-0.096 -0.2286,-0.15805 -0.397933,-0.15805 -0.169333,0 -0.301978,0.0621 -0.397933,0.15805 -0.141111,0.14393 -0.169334,0.33867 -0.169334,0.55315 0,0.21449 0.02822,0.40923 0.169334,0.55316 0.09595,0.096 0.2286,0.15804 0.397933,0.15804 0.169333,0 0.301978,-0.0621 0.397933,-0.15804 0.141111,-0.14393 0.169334,-0.33867 0.169334,-0.55316 z m -0.2032,0 c 0,0.15523 -0.0085,0.32738 -0.110067,0.42898 -0.06491,0.0649 -0.155222,0.1016 -0.254,0.1016 -0.09878,0 -0.186267,-0.0367 -0.251178,-0.1016 -0.1016,-0.1016 -0.112889,-0.27375 -0.112889,-0.42898 0,-0.15522 0.01129,-0.32737 0.112889,-0.42897 0.06491,-0.0649 0.1524,-0.1016 0.251178,-0.1016 0.09878,0 0.189089,0.0367 0.254,0.1016 0.1016,0.1016 0.110067,0.27375 0.110067,0.42897 z" />
      <path
         id="path992"
         style="font-size:2.82222223px;text-align:center;text-anchor:middle;stroke-width:0.26458332px"
         d="m 14.625318,262.4761 -0.138289,-0.13264 c -0.104422,0.11571 -0.186267,0.15804 -0.318911,0.15804 -0.135467,0 -0.248356,-0.0536 -0.321733,-0.15804 -0.06491,-0.0903 -0.09031,-0.19756 -0.09031,-0.37254 0,-0.17497 0.0254,-0.28222 0.09031,-0.37253 0.07338,-0.10442 0.186266,-0.15804 0.321733,-0.15804 0.132644,0 0.214489,0.0395 0.318911,0.15522 l 0.138289,-0.12982 c -0.143933,-0.15523 -0.265289,-0.20603 -0.4572,-0.20603 -0.349956,0 -0.615244,0.23707 -0.615244,0.7112 0,0.47414 0.265288,0.7112 0.615244,0.7112 0.191911,0 0.313267,-0.0508 0.4572,-0.20602 z" />
      <path
         id="path994"
         style="font-size:2.82222223px;text-align:center;text-anchor:middle;stroke-width:0.26458332px"
         d="m 15.546024,262.66519 v -0.17498 H 15.43878 c -0.129822,0 -0.189089,-0.0762 -0.189089,-0.2032 v -0.84666 h 0.296333 v -0.15523 h -0.296333 v -0.43462 h -0.2032 v 0.43462 h -0.174978 v 0.15523 h 0.174978 v 0.85231 c 0,0.20602 0.118533,0.37253 0.3556,0.37253 z" />
    </g>
    <g
       transform="translate(0,-10.054167)"
       id="text954"
       style="font-style:normal;font-variant:normal;font-weight:normal;font-stretch:normal;font-size:2.82222223px;line-height:6.61458302px;font-family:DINPro;-inkscape-font-specification:DINPro;font-variant-ligatures:normal;font-variant-caps:normal;font-variant-numeric:normal;font-feature-settings:normal;text-align:center;letter-spacing:0px;word-spacing:0px;writing-mode:lr-tb;text-anchor:middle;fill:#000000;fill-opacity:1;stroke:none;stroke-width:0.26458332px;stroke-linecap:butt;stroke-linejoin:miter;stroke-opacity:1"
       aria-label="Sine">
      <path
         id="path997"
         style="font-size:2.82222223px;text-align:center;text-anchor:middle;stroke-width:0.26458332px"
         d="m 10.714958,289.26526 c 0,-0.16651 -0.05927,-0.3048 -0.169334,-0.39793 -0.08467,-0.0734 -0.1778,-0.11289 -0.366889,-0.14111 l -0.220133,-0.0339 c -0.1044223,-0.0169 -0.2088445,-0.0564 -0.2709334,-0.11006 -0.062089,-0.0536 -0.090311,-0.13265 -0.090311,-0.23143 0,-0.22295 0.1552222,-0.37253 0.4233334,-0.37253 0.211667,0 0.344311,0.0593 0.468489,0.17216 l 0.138289,-0.13829 c -0.172156,-0.15522 -0.341489,-0.22014 -0.598311,-0.22014 -0.3979337,0 -0.643467,0.22578 -0.643467,0.56727 0,0.16087 0.0508,0.28505 0.1524,0.37536 0.087489,0.0762 0.2116666,0.127 0.3697111,0.1524 l 0.2342439,0.0367 c 0.146756,0.0226 0.197556,0.0395 0.262467,0.0959 0.06491,0.0565 0.09596,0.14676 0.09596,0.25118 0,0.23424 -0.180623,0.37253 -0.474134,0.37253 -0.2257774,0 -0.3809996,-0.0536 -0.5475107,-0.22013 l -0.1467556,0.14675 c 0.1890889,0.18909 0.3866445,0.26529 0.6886223,0.26529 0.417689,0 0.694267,-0.21731 0.694267,-0.57009 z" />
      <path
         id="path999"
         style="font-size:2.82222223px;text-align:center;text-anchor:middle;stroke-width:0.26458332px"
         d="m 11.329893,289.81842 v -1.38853 h -0.2032 v 1.38853 z m 0.01411,-1.78364 v -0.2286 h -0.2286 v 0.2286 z" />
      <path
         id="path1001"
         style="font-size:2.82222223px;text-align:center;text-anchor:middle;stroke-width:0.26458332px"
         d="m 12.935473,289.81842 v -0.889 c 0,-0.16087 -0.04515,-0.29069 -0.143933,-0.38664 -0.08467,-0.0847 -0.206022,-0.12983 -0.3556,-0.12983 -0.155222,0 -0.290689,0.0564 -0.389467,0.16934 v -0.1524 h -0.2032 v 1.38853 h 0.2032 v -0.85513 c 0,-0.24271 0.135467,-0.36971 0.344311,-0.36971 0.208845,0 0.341489,0.12417 0.341489,0.36971 v 0.85513 z" />
      <path
         id="path1003"
         style="font-size:2.82222223px;text-align:center;text-anchor:middle;stroke-width:0.26458332px"
         d="m 14.494751,289.17778 v -0.0931 c 0,-0.41204 -0.211667,-0.67169 -0.570089,-0.67169 -0.352778,0 -0.570089,0.26247 -0.570089,0.7112 0,0.49107 0.239889,0.7112 0.606778,0.7112 0.237067,0 0.366889,-0.0734 0.508,-0.21449 l -0.138289,-0.12135 c -0.110067,0.11007 -0.2032,0.15804 -0.364067,0.15804 -0.265289,0 -0.409222,-0.17497 -0.409222,-0.47977 z m -0.2032,-0.1524 h -0.733778 c 0.0056,-0.11289 0.01129,-0.15523 0.04233,-0.23143 0.05362,-0.127 0.1778,-0.20884 0.324556,-0.20884 0.146756,0 0.270933,0.0818 0.324556,0.20884 0.03104,0.0762 0.03669,0.11854 0.04233,0.23143 z" />
    </g>
    <g
       aria-label="Module01"
       style="font-style:normal;font-weight:normal;font-size:4.23333311px;line-height:1.25;font-family:sans-serif;letter-spacing:0px;word-spacing:0px;fill:#000000;fill-opacity:1;stroke:none;stroke-width:0.26458332"
       id="text3735">
      <path
         d="M 5.308793,205.114 H 4.8995157 v -2.65204 L 4.043754,204.2665 H 3.7998413 L 2.9502808,202.46196 V 205.114 H 2.5678752 v -3.07785 h 0.5581054 l 0.8206217,1.71359 0.79375,-1.71359 H 5.308793 Z"
         style="stroke-width:0.26458332"
         id="path3728" />
      <path
         d="m 8.0765826,203.96058 q 0,0.56431 -0.289388,0.8909 -0.289388,0.3266 -0.7751464,0.3266 -0.4898926,0 -0.7792806,-0.3266 -0.2873209,-0.32659 -0.2873209,-0.8909 0,-0.56431 0.2873209,-0.8909 0.289388,-0.32866 0.7792806,-0.32866 0.4857584,0 0.7751464,0.32866 0.289388,0.32659 0.289388,0.8909 z m -0.4010091,0 q 0,-0.44855 -0.1756998,-0.66559 -0.1756999,-0.21911 -0.4878255,-0.21911 -0.3162598,0 -0.4919596,0.21911 -0.1736328,0.21704 -0.1736328,0.66559 0,0.43408 0.1756998,0.65939 0.1756999,0.22324 0.4898926,0.22324 0.3100586,0 0.4857584,-0.22117 0.1777669,-0.22324 0.1777669,-0.66146 z"
         style="stroke-width:0.26458332"
         id="path3730" />
      <path
         d="m 10.552917,205.114 h -0.388606 v -0.24185 q -0.1674319,0.1447 -0.3493329,0.22531 -0.1819011,0.0806 -0.3948079,0.0806 -0.4134115,0 -0.6573242,-0.31833 -0.2418457,-0.31833 -0.2418457,-0.88263 0,-0.29353 0.082682,-0.52297 0.084749,-0.22944 0.2273763,-0.39067 0.1405598,-0.1571 0.326595,-0.23978 0.1881022,-0.0827 0.3886067,-0.0827 0.1819011,0 0.322461,0.0393 0.1405594,0.0372 0.2955894,0.11782 v -1.00045 h 0.388606 z m -0.388606,-0.56844 v -1.32499 q -0.157097,-0.0703 -0.28112,-0.0971 -0.1240235,-0.0269 -0.2707845,-0.0269 -0.3265951,0 -0.5084961,0.22738 -0.181901,0.22737 -0.181901,0.64492 0,0.41134 0.1405599,0.62632 0.1405598,0.2129 0.4506184,0.2129 0.1653646,0 0.3348633,-0.0723 0.169499,-0.0744 0.31626,-0.19017 z"
         style="stroke-width:0.26458332"
         id="path3732" />
      <path
         d="m 13.231823,205.114 h -0.388606 v -0.25632 q -0.196371,0.15503 -0.376205,0.23771 -0.179834,0.0827 -0.396875,0.0827 -0.363802,0 -0.566374,-0.22118 -0.202571,-0.22324 -0.202571,-0.65319 v -1.49861 h 0.388607 v 1.31464 q 0,0.1757 0.01654,0.30179 0.01654,0.12403 0.07028,0.21291 0.05581,0.0909 0.144694,0.13229 0.08888,0.0413 0.258382,0.0413 0.150895,0 0.328662,-0.0785 0.179834,-0.0786 0.334864,-0.20051 v -1.72392 h 0.388606 z"
         style="stroke-width:0.26458332"
         id="path3734" />
      <path
         d="m 14.389376,205.114 h -0.388607 v -3.21634 h 0.388607 z"
         style="stroke-width:0.26458332"
         id="path3736" />
      <path
         d="m 17.095153,203.99985 h -1.701188 q 0,0.21291 0.06408,0.37207 0.06408,0.1571 0.1757,0.25839 0.107487,0.0992 0.254248,0.14883 0.148828,0.0496 0.326595,0.0496 0.235645,0 0.473356,-0.093 0.239779,-0.0951 0.341065,-0.18604 h 0.02067 v 0.42375 q -0.19637,0.0827 -0.401009,0.13849 -0.204639,0.0558 -0.429948,0.0558 -0.574642,0 -0.897103,-0.31006 -0.322461,-0.31212 -0.322461,-0.8847 0,-0.56637 0.307992,-0.89917 0.310058,-0.33279 0.81442,-0.33279 0.467155,0 0.719336,0.27285 0.254248,0.27285 0.254248,0.77514 z m -0.378271,-0.29765 q -0.0021,-0.30593 -0.155029,-0.47336 -0.150896,-0.16743 -0.460954,-0.16743 -0.312126,0 -0.498161,0.18397 -0.183968,0.18397 -0.208773,0.45682 z"
         style="stroke-width:0.26458332"
         id="path3738" />
      <path
         d="m 19.714115,203.57404 q 0,0.82889 -0.26045,1.2175 -0.258382,0.38654 -0.804085,0.38654 -0.553971,0 -0.810286,-0.39274 -0.254248,-0.39274 -0.254248,-1.20717 0,-0.82062 0.258382,-1.21129 0.258382,-0.39274 0.806152,-0.39274 0.553972,0 0.80822,0.39894 0.256315,0.39688 0.256315,1.20096 z m -0.543636,0.93844 q 0.07235,-0.16743 0.09715,-0.39274 0.02687,-0.22737 0.02687,-0.5457 0,-0.31419 -0.02687,-0.5457 -0.0248,-0.23151 -0.09922,-0.39274 -0.07235,-0.15917 -0.198438,-0.23978 -0.124023,-0.0806 -0.320394,-0.0806 -0.194303,0 -0.322461,0.0806 -0.12609,0.0806 -0.200504,0.24391 -0.07028,0.15296 -0.09715,0.39894 -0.02481,0.24598 -0.02481,0.5395 0,0.32247 0.02274,0.53951 0.02274,0.21704 0.09715,0.3886 0.06821,0.16123 0.192236,0.24598 0.12609,0.0847 0.332796,0.0847 0.194304,0 0.322461,-0.0806 0.128158,-0.0806 0.198438,-0.24392 z"
         style="stroke-width:0.26458332"
         id="path3740" />
      <path
         d="m 22.237992,205.114 h -1.666048 v -0.31419 h 0.640788 v -2.06293 h -0.640788 v -0.28112 q 0.130225,0 0.279053,-0.0207 0.148828,-0.0227 0.225309,-0.0641 0.09509,-0.0517 0.148828,-0.13022 0.05581,-0.0806 0.06408,-0.21498 h 0.320394 v 2.774 h 0.628385 z"
         style="stroke-width:0.26458332"
         id="path3742" />
    </g>
    <g
       aria-label="Synthfreak42"
       style="font-style:normal;font-variant:normal;font-weight:normal;font-stretch:normal;font-size:2.82222223px;line-height:1.25;font-family:sans-serif;-inkscape-font-specification:'sans-serif, Normal';font-variant-ligatures:normal;font-variant-caps:normal;font-variant-numeric:normal;font-feature-settings:normal;text-align:start;letter-spacing:0px;word-spacing:0px;writing-mode:lr-tb;text-anchor:start;fill:#000000;fill-opacity:1;stroke:none;stroke-width:0.26458332"
       id="text3739">
      <path
         d="m 4.1478944,290.55572 q 0,0.11989 -0.0565,0.23702 -0.055121,0.11714 -0.1557183,0.19844 -0.110243,0.0882 -0.2576931,0.13781 -0.1460721,0.0496 -0.3527778,0.0496 -0.2218642,0 -0.3996311,-0.0413 -0.1763889,-0.0413 -0.359668,-0.12264 v -0.34176 h 0.019293 q 0.1557183,0.12954 0.359668,0.19982 0.2039496,0.0703 0.3830946,0.0703 0.253559,0 0.3941189,-0.0951 0.1419379,-0.0951 0.1419379,-0.25356 0,-0.13643 -0.067524,-0.2012 -0.066146,-0.0648 -0.2025717,-0.10059 -0.1033528,-0.0276 -0.2246202,-0.0455 -0.1198893,-0.0179 -0.2549371,-0.0455 -0.2728515,-0.0579 -0.4051432,-0.19706 -0.1309136,-0.14056 -0.1309136,-0.36518 0,-0.2577 0.21773,-0.42168 0.2177301,-0.16537 0.5525933,-0.16537 0.216352,0 0.396875,0.0413 0.180523,0.0413 0.3197049,0.10198 v 0.32246 h -0.019292 q -0.1171333,-0.0992 -0.3086806,-0.16399 -0.1901693,-0.0661 -0.3899848,-0.0661 -0.2191081,0 -0.3527778,0.0909 -0.1322916,0.091 -0.1322916,0.23426 0,0.12816 0.066146,0.2012 0.066146,0.073 0.2328884,0.11162 0.088195,0.0193 0.250803,0.0469 0.1626085,0.0276 0.2756076,0.0565 0.2287544,0.0606 0.3445096,0.18328 0.1157552,0.12265 0.1157552,0.34313 z"
         style="font-style:normal;font-variant:normal;font-weight:normal;font-stretch:normal;font-size:2.82222223px;font-family:sans-serif;-inkscape-font-specification:'sans-serif, Normal';font-variant-ligatures:normal;font-variant-caps:normal;font-variant-numeric:normal;font-feature-settings:normal;text-align:start;writing-mode:lr-tb;text-anchor:start;stroke-width:0.26458332"
         id="path3745" />
      <path
         d="m 5.8580398,289.60212 -0.8984809,2.10702 H 4.6825732 l 0.2866319,-0.64217 -0.6132269,-1.46485 h 0.2811197 l 0.4726671,1.14101 0.4768013,-1.14101 z"
         style="font-style:normal;font-variant:normal;font-weight:normal;font-stretch:normal;font-size:2.82222223px;font-family:sans-serif;-inkscape-font-specification:'sans-serif, Normal';font-variant-ligatures:normal;font-variant-caps:normal;font-variant-numeric:normal;font-feature-settings:normal;text-align:start;writing-mode:lr-tb;text-anchor:start;stroke-width:0.26458332"
         id="path3747" />
      <path
         d="M 7.4841248,291.14139 H 7.2250536 v -0.87643 q 0,-0.10611 -0.012402,-0.19844 -0.012402,-0.0937 -0.045475,-0.14607 -0.034451,-0.0579 -0.099219,-0.0854 -0.064768,-0.0289 -0.1681207,-0.0289 -0.1061089,0 -0.2218642,0.0524 -0.1157552,0.0524 -0.2218641,0.13367 v 1.14929 H 6.1970371 v -1.53927 h 0.2590712 v 0.17088 q 0.1212674,-0.1006 0.2508029,-0.1571 0.1295356,-0.0565 0.2659614,-0.0565 0.2494249,0 0.3803386,0.15021 0.1309136,0.1502 0.1309136,0.4327 z"
         style="font-style:normal;font-variant:normal;font-weight:normal;font-stretch:normal;font-size:2.82222223px;font-family:sans-serif;-inkscape-font-specification:'sans-serif, Normal';font-variant-ligatures:normal;font-variant-caps:normal;font-variant-numeric:normal;font-feature-settings:normal;text-align:start;writing-mode:lr-tb;text-anchor:start;stroke-width:0.26458332"
         id="path3749" />
      <path
         d="m 8.7822371,291.12761 q -0.073036,0.0193 -0.1598525,0.0317 -0.085438,0.0124 -0.1529622,0.0124 -0.2356445,0 -0.3582899,-0.12677 -0.1226454,-0.12678 -0.1226454,-0.40653 v -0.81855 H 7.8134762 v -0.21773 h 0.1750109 v -0.44235 h 0.2590711 v 0.44235 h 0.5346789 v 0.21773 H 8.2475582 v 0.70142 q 0,0.12127 0.00551,0.19017 0.00551,0.0675 0.038585,0.12678 0.030317,0.0551 0.082682,0.0813 0.053743,0.0248 0.1626086,0.0248 0.06339,0 0.1322916,-0.0179 0.068902,-0.0193 0.099219,-0.0317 h 0.01378 z"
         style="font-style:normal;font-variant:normal;font-weight:normal;font-stretch:normal;font-size:2.82222223px;font-family:sans-serif;-inkscape-font-specification:'sans-serif, Normal';font-variant-ligatures:normal;font-variant-caps:normal;font-variant-numeric:normal;font-feature-settings:normal;text-align:start;writing-mode:lr-tb;text-anchor:start;stroke-width:0.26458332"
         id="path3751" />
      <path
         d="m 10.383517,291.14139 h -0.259071 v -0.87643 q 0,-0.10611 -0.0124,-0.19844 -0.0124,-0.0937 -0.04547,-0.14607 -0.03445,-0.0579 -0.099219,-0.0854 -0.064768,-0.0289 -0.1681207,-0.0289 -0.1061089,0 -0.2218641,0.0524 -0.1157553,0.0524 -0.2218642,0.13367 v 1.14929 H 9.0964297 v -2.14423 h 0.2590712 v 0.77584 q 0.1212674,-0.1006 0.250803,-0.1571 0.1295355,-0.0565 0.2659613,-0.0565 0.2494248,0 0.3803388,0.15021 0.130913,0.1502 0.130913,0.4327 z"
         style="font-style:normal;font-variant:normal;font-weight:normal;font-stretch:normal;font-size:2.82222223px;font-family:sans-serif;-inkscape-font-specification:'sans-serif, Normal';font-variant-ligatures:normal;font-variant-caps:normal;font-variant-numeric:normal;font-feature-settings:normal;text-align:start;writing-mode:lr-tb;text-anchor:start;stroke-width:0.26458332"
         id="path3753" />
      <path
         d="m 11.710568,289.24796 h -0.01378 q -0.04272,-0.0124 -0.111621,-0.0248 -0.0689,-0.0138 -0.121268,-0.0138 -0.166742,0 -0.242535,0.0744 -0.07441,0.073 -0.07441,0.26596 v 0.0524 h 0.467155 v 0.21773 h -0.458886 v 1.32154 h -0.259072 v -1.32154 h -0.17501 v -0.21773 h 0.17501 v -0.051 q 0,-0.27423 0.136426,-0.4203 0.136426,-0.14745 0.394119,-0.14745 0.08682,0 0.155718,0.008 0.07028,0.008 0.128158,0.0193 z"
         style="font-style:normal;font-variant:normal;font-weight:normal;font-stretch:normal;font-size:2.82222223px;font-family:sans-serif;-inkscape-font-specification:'sans-serif, Normal';font-variant-ligatures:normal;font-variant-caps:normal;font-variant-numeric:normal;font-feature-settings:normal;text-align:start;writing-mode:lr-tb;text-anchor:start;stroke-width:0.26458332"
         id="path3755" />
      <path
         d="m 12.835047,289.88462 h -0.01378 q -0.05788,-0.0138 -0.112999,-0.0193 -0.05374,-0.007 -0.128158,-0.007 -0.119889,0 -0.23151,0.0537 -0.111621,0.0524 -0.214974,0.13642 v 1.09279 h -0.259071 v -1.53927 h 0.259071 v 0.22738 q 0.15434,-0.12403 0.271473,-0.17502 0.118512,-0.0524 0.241157,-0.0524 0.06752,0 0.09784,0.004 0.03032,0.003 0.09095,0.0124 z"
         style="font-style:normal;font-variant:normal;font-weight:normal;font-stretch:normal;font-size:2.82222223px;font-family:sans-serif;-inkscape-font-specification:'sans-serif, Normal';font-variant-ligatures:normal;font-variant-caps:normal;font-variant-numeric:normal;font-feature-settings:normal;text-align:start;writing-mode:lr-tb;text-anchor:start;stroke-width:0.26458332"
         id="path3757" />
      <path
         d="m 14.370182,290.39863 h -1.134125 q 0,0.14193 0.04272,0.24804 0.04272,0.10473 0.117133,0.17226 0.07166,0.0661 0.169499,0.0992 0.09922,0.0331 0.21773,0.0331 0.157096,0 0.315571,-0.062 0.159852,-0.0634 0.227376,-0.12403 h 0.01378 v 0.2825 q -0.130913,0.0551 -0.267339,0.0923 -0.136426,0.0372 -0.286632,0.0372 -0.383095,0 -0.598069,-0.20671 -0.214974,-0.20808 -0.214974,-0.5898 0,-0.37758 0.205328,-0.59945 0.206706,-0.22186 0.542947,-0.22186 0.311437,0 0.479557,0.1819 0.169499,0.1819 0.169499,0.51677 z m -0.252181,-0.19844 q -0.0014,-0.20395 -0.103353,-0.31557 -0.100596,-0.11162 -0.307302,-0.11162 -0.208084,0 -0.332107,0.12264 -0.122646,0.12265 -0.139182,0.30455 z"
         style="font-style:normal;font-variant:normal;font-weight:normal;font-stretch:normal;font-size:2.82222223px;font-family:sans-serif;-inkscape-font-specification:'sans-serif, Normal';font-variant-ligatures:normal;font-variant-caps:normal;font-variant-numeric:normal;font-feature-settings:normal;text-align:start;writing-mode:lr-tb;text-anchor:start;stroke-width:0.26458332"
         id="path3759" />
      <path
         d="m 15.959059,291.14139 h -0.257693 v -0.16399 q -0.03445,0.0234 -0.09371,0.0661 -0.05788,0.0413 -0.113,0.0661 -0.06477,0.0317 -0.148828,0.0524 -0.08406,0.022 -0.197059,0.022 -0.208084,0 -0.352778,-0.13781 -0.144694,-0.1378 -0.144694,-0.3514 0,-0.17501 0.07441,-0.28249 0.07579,-0.10887 0.214974,-0.17088 0.14056,-0.062 0.337619,-0.0841 0.19706,-0.022 0.423058,-0.0331 v -0.04 q 0,-0.0882 -0.0317,-0.14607 -0.03032,-0.0579 -0.08819,-0.0909 -0.05512,-0.0317 -0.132292,-0.0427 -0.07717,-0.011 -0.16123,-0.011 -0.101975,0 -0.227377,0.0276 -0.125401,0.0262 -0.259071,0.0772 h -0.01378 v -0.26321 q 0.07579,-0.0207 0.219108,-0.0455 0.143316,-0.0248 0.282498,-0.0248 0.162608,0 0.282498,0.0276 0.121267,0.0262 0.209461,0.091 0.08682,0.0634 0.132292,0.16399 0.04547,0.1006 0.04547,0.24942 z m -0.257693,-0.37896 v -0.42857 q -0.118511,0.007 -0.279742,0.0207 -0.159852,0.0138 -0.253559,0.04 -0.111621,0.0317 -0.180523,0.0992 -0.0689,0.0661 -0.0689,0.18328 0,0.13229 0.07993,0.19981 0.07993,0.0661 0.243912,0.0661 0.136426,0 0.249425,-0.0524 0.113,-0.0537 0.209462,-0.12815 z"
         style="font-style:normal;font-variant:normal;font-weight:normal;font-stretch:normal;font-size:2.82222223px;font-family:sans-serif;-inkscape-font-specification:'sans-serif, Normal';font-variant-ligatures:normal;font-variant-caps:normal;font-variant-numeric:normal;font-feature-settings:normal;text-align:start;writing-mode:lr-tb;text-anchor:start;stroke-width:0.26458332"
         id="path3761" />
      <path
         d="m 17.857996,291.14139 h -0.341753 l -0.617361,-0.67386 -0.168121,0.15985 v 0.51401 H 16.47169 v -2.14423 h 0.259071 v 1.37528 l 0.748275,-0.77032 h 0.326595 l -0.715202,0.71107 z"
         style="font-style:normal;font-variant:normal;font-weight:normal;font-stretch:normal;font-size:2.82222223px;font-family:sans-serif;-inkscape-font-specification:'sans-serif, Normal';font-variant-ligatures:normal;font-variant-caps:normal;font-variant-numeric:normal;font-feature-settings:normal;text-align:start;writing-mode:lr-tb;text-anchor:start;stroke-width:0.26458332"
         id="path3763" />
      <path
         d="m 19.533691,290.56399 h -0.304547 v 0.5774 h -0.264583 v -0.5774 H 17.98202 v -0.31695 l 0.993565,-1.15755 h 0.253559 v 1.25401 h 0.304547 z m -0.56913,-0.22049 v -0.92604 l -0.795128,0.92604 z"
         style="font-style:normal;font-variant:normal;font-weight:normal;font-stretch:normal;font-size:2.82222223px;font-family:sans-serif;-inkscape-font-specification:'sans-serif, Normal';font-variant-ligatures:normal;font-variant-caps:normal;font-variant-numeric:normal;font-feature-settings:normal;text-align:start;writing-mode:lr-tb;text-anchor:start;stroke-width:0.26458332"
         id="path3765" />
      <path
         d="m 21.2838,291.14139 h -1.389062 v -0.28801 q 0.144694,-0.12403 0.289388,-0.24805 0.146072,-0.12402 0.271473,-0.24667 0.264584,-0.25631 0.362424,-0.40652 0.09784,-0.15158 0.09784,-0.32659 0,-0.15986 -0.106109,-0.24943 -0.104731,-0.091 -0.293522,-0.091 -0.125402,0 -0.271474,0.0441 -0.146072,0.0441 -0.285254,0.13505 h -0.01378 v -0.28939 q 0.09784,-0.0482 0.260449,-0.0882 0.163987,-0.04 0.316949,-0.04 0.315571,0 0.494716,0.15296 0.179145,0.15159 0.179145,0.41204 0,0.11713 -0.03032,0.2191 -0.02894,0.1006 -0.08682,0.19155 -0.05374,0.0854 -0.126779,0.16812 -0.07166,0.0827 -0.175011,0.18328 -0.14745,0.14469 -0.304546,0.28112 -0.157097,0.13505 -0.293522,0.2508 H 21.2838 Z"
         style="font-style:normal;font-variant:normal;font-weight:normal;font-stretch:normal;font-size:2.82222223px;font-family:sans-serif;-inkscape-font-specification:'sans-serif, Normal';font-variant-ligatures:normal;font-variant-caps:normal;font-variant-numeric:normal;font-feature-settings:normal;text-align:start;writing-mode:lr-tb;text-anchor:start;stroke-width:0.26458332"
         id="path3767" />
    </g>
  </g>
</svg>
